<?xml version="1.0" encoding="UTF-8"?>
<svg viewBox="0 0 512 512" xmlns="http://www.w3.org/2000/svg">
  <!-- GiNautilusShell  -->
  <!-- <path fill="#e5e5e5" d="M141.49 361.44c10.6 2.434 16.243 2.523 27.81 1.153-8.665 41.136 46.103 47.286-16.42 118.757 21.354-80.17-25.916-60.54-11.39-119.91zm-40.532-20.274l25.917 13.68c-16.114 18.798-4.805 80.966-38.226 112.614-1.29-49.98-4.846-91.22 12.308-126.294zm264.044 115.452l1.547-33.994c-12.31-35.97-29.496-68.375-48.6-99.386 11.67-4.796 21.683-11.94 28.495-23.506 32.502 10.19 65.77 18.718 103.352 17.21 8.706 62.95-27.626 109.003-84.795 139.676zm-177.17-75.106l21.3-6.7c26.714-18.29 48.23-36.024 64.4-58.176 8.125 4.756 16.735 9.238 26.6 12.712 18.042 34.365 32.07 67.214 40.21 102.514-41.305 30.874-118.877 26.916-152.51-50.35zM68.98 315.588l21.233 23.216c-9.738 13.462-20.274 38.548-30.584 80.837-14.157-39.136-10.908-74.073 9.35-104.052zm-28.392-26.61l16.34 20.782c-8.996 10.657-19.41 30.97-30.697 65.73-9.398-33.655-4.456-62.724 14.358-86.512zm213.58-57.984c-2.62 9.73-3.756 19.307-1.724 28.343l9.61 41.426c-16.85 20.87-37.88 39.935-66.4 56.695-15.35-54.703 15.63-97.823 58.515-126.464zM68.82 296.95c-29.31-26.585-31.01-42.933-15.51-52.8.492-66.255 29.545-109.35 73.365-139.152l-4.28 43.345c3.748 43.708 23.925 80.24 57.62 133.243-9.31 21.354-14.227 45.24-8.23 66.988-38.17-10.616-81.022-29.278-102.965-51.624zm236.99 4.136l11.472-47.02c33.01 14.856 17.823 38.483-11.472 47.02zm183.787-.234l-33.188-11.6c-36.356 2.137-70.495-2.676-103.787-10.407 1.733-14.494-1.58-29.205-7.2-42.506 15.02-26.33 50.117-64.756 78.855-87.916 49.447 49.27 70.69 100.152 65.32 152.428zm-199.312-1.144l-8.85-4.257c-5.7-16.177-10.094-33.315-12.44-51.96 12.358-5.894 23.28-7.167 32.55-3.177l-11.26 59.395zM143.44 134.656c34.454-64.264 82.805-93.792 135.34-104.006l-20.323 42.547c-5.788 41.636-8.472 85.255 1.363 136.798-22.58 10.1-47.158 22.37-67.964 53.768-25.7-38.178-46.247-81.12-48.415-129.107zm136.96 75.96c-9.254-41.2-6.32-83.707-.63-135.815 67.086-10.962 125.078 3.436 167.4 43.137-13.842 3.007-26.305 7.892-38.163 13.64-30.52 28.012-55.25 60.264-77.217 94.468-15.26-8.682-32.672-13.333-51.39-15.43z"/> -->
  <!-- GiSpiralShell  -->
  <!-- <path fill="#e5e5e5" d="M485.096 39.047c-7.14.375-49.73 5.767-52.11 23.037-9.77-2.646-19.678-1.8-26.85 3.115-5.393 3.694-8.374 9.102-9.01 15.17-11.383-2.674-22.25-1.52-29.87 4.1-6.4 4.722-9.476 11.842-9.45 19.932-4.608-1.094-9.15-1.7-13.51-1.777-.584-.01-1.163-.01-1.74-.002-8.644.127-16.51 2.363-22.69 6.922-6.807 5.02-10.638 12.188-11.67 20.422-22.614-6.658-44.65-5.202-59.692 5.894-12.258 9.043-17.78 22.947-17.025 38.652-46.313-12-87.766-.726-90.414 55.246-4.322 91.366-104.763 126.175-107.828 254.664 71.16-106.47 255.07-279.767 239.6-137.213-8.058 74.248-92.804 24.706-211.91 115.454 108.46-74.824 224.278-15.26 232.486-121.47 19.974 10.955 29.233 6.274 46.232-6.266 24.394-17.993 27.178-41.515 16.985-65.127 6.975-1.565 13.346-4.3 18.792-8.318 16.943-12.497 21.037-34.275 13.43-57.277 7.5-.54 14.307-2.75 19.787-6.79 11.34-8.366 14.457-22.676 10.042-37.99 7.16.034 13.692-1.72 18.775-5.47 9.79-7.222 11.822-20.045 6.822-33.39 4.467-.53 8.62-1.952 12.12-4.35 8.628-5.912 11.097-16.204 7.616-26.59 17.763-3.348 20.07-43.588 21.08-50.578z"/> -->
  <!-- GiSwirledShell  -->
  <path fill="#e5e5e5" d="M477.02 283.53l-23.338 168.596-120.823-64.287 19.638-88.924zm-4.953-28.205l-82.372-132.09-82.893 89.128 42.711 72.504zM365.623 110.01l-140.96-50.136-4.137 115.327 75.487 26.853zm-158.758 65.346l-16.654-107.38L72.903 131.91l75.975 73.551zm-67.171 43.635l-76.87-54.12L26 281.035l94.478-4.857zM43.666 321.713l65.223 85.991 45.154-71.366-31.928-42.6zm127.649 24.632l-13.204 71.352 93.372-11.528-35.625-65.002zm57.931-16.63l51.942 32.37 8.63-85.684-54.99 14.104zm.152-51.805l41.678-25.176-54.839-37.302-14.706 48.982z"/>
</svg>